<svg width="38" height="38" viewBox="0 0 38 38" fill="none" xmlns="http://www.w3.org/2000/svg">
<g clip-path="url(#clip0)">
<g clip-path="url(#clip1)">
<path d="M34.1193 7.14072L3.99103 10.8277C3.86865 10.8428 3.75611 10.902 3.67231 10.9927C3.48037 11.2021 3.49158 11.5296 3.70271 11.7242L12.3544 19.6917C12.4847 19.8116 12.6673 19.8577 12.8383 19.8103L17.7387 18.5284L14.6614 22.5479C14.5532 22.6899 14.5233 22.8734 14.586 23.0381L18.5837 34.1178C18.6258 34.2339 18.7067 34.3321 18.8118 34.3907C19.059 34.5341 19.3758 34.4482 19.5219 34.1992L34.6346 7.91608C34.6914 7.8199 34.7122 7.70478 34.7016 7.595C34.6634 7.30886 34.4046 7.10696 34.1193 7.14072ZM19.4486 29.6406L17.1165 23.1831L23.273 15.1467C23.3208 15.0838 23.3398 15.0011 23.3183 14.9219C23.2807 14.7833 23.1405 14.7012 23.0001 14.7361L13.2082 17.3017L8.17794 12.6683L30.7973 9.90129L19.4486 29.6406Z" fill="black"/>
</g>
</g>
<defs>
<clipPath id="clip0">
<rect width="38" height="38" fill="white"/>
</clipPath>
<clipPath id="clip1">
<rect width="33.2156" height="33.2156" fill="white" transform="translate(0 10.3836) rotate(-33.6049)"/>
</clipPath>
</defs>
</svg>
