<svg width="482" height="544" viewBox="0 0 482 544" fill="none" xmlns="http://www.w3.org/2000/svg">
<g clip-path="url(#clip0)">
<g opacity="0.2">
<path opacity="0.2" d="M358.034 496.512C357.6 497.32 357.1 498.09 356.538 498.814C351.572 495.325 346.52 491.899 341.384 488.538L341.717 487.879C342.905 485.585 344.684 483.649 346.87 482.27C349.705 480.527 352.902 480.145 355.532 481.561C358.161 482.978 359.629 485.811 359.785 489.118C359.865 491.694 359.261 494.245 358.034 496.512Z" fill="#3F3D56"/>
<path opacity="0.2" d="M364.951 483.545C368.076 477.652 366.957 470.942 362.453 468.558C357.949 466.174 351.765 469.019 348.641 474.912C345.516 480.806 346.635 487.516 351.139 489.9C355.643 492.284 361.827 489.439 364.951 483.545Z" fill="#3F3D56"/>
<path opacity="0.2" d="M371.866 470.504C374.991 464.611 373.872 457.901 369.368 455.517C364.864 453.133 358.68 455.978 355.555 461.871C352.431 467.765 353.55 474.475 358.054 476.859C362.558 479.242 368.742 476.397 371.866 470.504Z" fill="#3F3D56"/>
<path opacity="0.2" d="M378.781 457.463C381.905 451.57 380.787 444.859 376.282 442.476C371.778 440.092 365.594 442.937 362.47 448.83C359.346 454.724 360.464 461.434 364.968 463.818C369.473 466.201 375.657 463.356 378.781 457.463Z" fill="#3F3D56"/>
<path opacity="0.2" d="M385.689 444.429C388.813 438.536 387.694 431.825 383.19 429.442C378.686 427.058 372.502 429.903 369.378 435.796C366.253 441.69 367.372 448.4 371.876 450.783C376.38 453.167 382.564 450.322 385.689 444.429Z" fill="#3F3D56"/>
<path opacity="0.2" d="M394.283 334.679C393.905 332.673 393.668 330.642 393.574 328.603L416.909 336.45L393.638 324.353C393.976 318.342 395.538 312.464 398.229 307.077C400.92 301.691 404.684 296.91 409.289 293.028L431.837 325.607L414.329 289.373C419.474 286.155 425.227 284.031 431.23 283.132C437.233 282.233 443.357 282.579 449.22 284.148C455.084 285.717 460.561 288.476 465.311 292.252C470.06 296.029 473.981 300.742 476.828 306.098C479.675 311.455 481.387 317.34 481.859 323.386C482.33 329.433 481.55 335.512 479.568 341.244C477.585 346.977 474.443 352.24 470.336 356.706C466.229 361.171 461.245 364.744 455.696 367.202C456.273 370.328 456.51 373.508 456.404 376.685L420.963 376.402L455.894 382.153C454.713 389.4 451.743 396.239 447.252 402.051C442.76 407.863 436.89 412.465 430.171 415.44C431.651 423.597 430.804 432.004 427.727 439.703C424.651 447.401 419.468 454.079 412.772 458.973C406.076 463.867 398.137 466.78 389.862 467.378C381.588 467.977 373.312 466.237 365.98 462.357C358.648 458.477 352.557 452.615 348.403 445.439C344.249 438.264 342.199 430.066 342.488 421.781C342.777 413.497 345.394 405.461 350.038 398.592C354.682 391.723 361.167 386.299 368.751 382.939C366.985 373.192 368.547 363.135 373.188 354.382C377.828 345.629 385.278 338.688 394.34 334.672L394.283 334.679Z" fill="black"/>
<path opacity="0.1" d="M451.265 395.737C446.636 404.498 439.184 411.443 430.114 415.447C431.594 423.604 430.747 432.012 427.671 439.71C424.594 447.408 419.411 454.086 412.715 458.98C406.019 463.874 398.08 466.787 389.805 467.385C381.531 467.984 373.255 466.244 365.923 462.364C358.592 458.484 352.5 452.622 348.346 445.447C344.192 438.271 342.142 430.073 342.431 421.788C342.72 413.504 345.337 405.468 349.981 398.599C354.625 391.73 361.11 386.306 368.694 382.946C366.979 373.533 453.59 391.353 451.265 395.737Z" fill="black"/>
</g>
<g opacity="0.2">
<path opacity="0.2" d="M153.815 440.328C154.235 442.038 154.802 443.708 155.509 445.321C166.429 441.142 177.475 437.129 188.646 433.281C188.547 432.827 188.448 432.36 188.334 431.864C187.2 427.021 184.795 422.567 181.367 418.96C176.908 414.371 171.124 412.133 165.56 413.492C159.996 414.852 155.899 419.491 154.049 425.596C152.656 430.398 152.576 435.484 153.815 440.328Z" fill="#3F3D56"/>
<path opacity="0.2" d="M169.872 431.052C179.407 428.726 184.666 416.734 181.62 404.266C178.573 391.799 168.375 383.577 158.841 385.903C149.306 388.229 144.047 400.221 147.093 412.689C150.14 425.156 160.338 433.378 169.872 431.052Z" fill="#3F3D56"/>
<path opacity="0.2" d="M163.123 403.457C172.658 401.131 177.917 389.139 174.871 376.671C171.824 364.204 161.626 355.982 152.092 358.308C142.557 360.634 137.298 372.626 140.344 385.094C143.391 397.561 153.589 405.783 163.123 403.457Z" fill="#3F3D56"/>
<path opacity="0.2" d="M156.383 375.862C165.917 373.536 171.177 361.544 168.13 349.076C165.084 336.609 154.885 328.387 145.351 330.713C135.817 333.039 130.558 345.031 133.604 357.499C136.65 369.966 146.849 378.188 156.383 375.862Z" fill="#3F3D56"/>
<path opacity="0.2" d="M149.643 348.274C159.177 345.948 164.436 333.956 161.39 321.488C158.344 309.021 148.145 300.799 138.611 303.125C129.077 305.451 123.817 317.443 126.864 329.911C129.91 342.378 140.108 350.6 149.643 348.274Z" fill="#3F3D56"/>
<path opacity="0.2" d="M162.59 121.145C164.219 117.572 165.595 113.889 166.708 110.124L119.536 113.744L168.7 102.121C170.908 90.7404 170.769 79.0289 168.292 67.7035C165.814 56.3781 161.049 45.677 154.29 36.2549L96.7899 86.4408L146.592 27.069C138.506 18.6481 128.773 11.9801 117.997 7.48007C107.221 2.98 95.6333 0.744154 83.9553 0.911676C72.2773 1.0792 60.7587 3.6465 50.1166 8.45381C39.4744 13.2611 29.9364 20.2055 22.0961 28.8549C14.2558 37.5042 8.28105 47.6733 4.54373 58.7293C0.806413 69.7854 -0.613491 81.4916 0.372361 93.1196C1.35821 104.748 4.72873 116.048 10.2742 126.319C15.8196 136.589 23.4212 145.609 32.6059 152.817C30.0666 158.381 28.1392 164.204 26.8574 170.183L93.1962 186.388L25.2909 180.637C24.0567 194.737 26.3622 208.922 31.9987 221.907C37.6352 234.892 46.4245 246.267 57.5707 255.002C50.9545 269.527 48.5624 285.619 50.6678 301.439C52.7732 317.258 59.2912 332.166 69.4766 344.459C79.662 356.752 93.1037 365.932 108.265 370.952C123.426 375.971 139.695 376.626 155.211 372.843C170.728 369.059 184.866 360.99 196.008 349.556C207.151 338.123 214.849 323.787 218.222 308.189C221.595 292.59 220.508 276.358 215.083 261.347C209.659 246.337 200.117 233.155 187.548 223.308C195.455 205.95 197.294 186.439 192.767 167.91C188.241 149.382 177.613 132.911 162.59 121.145Z" fill="black"/>
<path opacity="0.1" d="M27.4031 208.216C31.902 226.748 42.532 243.219 57.5706 254.96C50.9544 269.485 48.5623 285.577 50.6677 301.396C52.7731 317.216 59.2912 332.124 69.4766 344.416C79.662 356.709 93.1037 365.89 108.265 370.909C123.426 375.928 139.695 376.584 155.211 372.8C170.728 369.017 184.865 360.947 196.008 349.514C207.151 338.08 214.849 323.745 218.222 308.146C221.595 292.547 220.508 276.315 215.083 261.305C209.659 246.295 200.117 233.113 187.548 223.266C195.196 206.523 25.1349 198.945 27.4031 208.216Z" fill="black"/>
</g>
<path d="M396.941 119.204H395.361V34.031C395.361 15.2484 379.887 0.0354118 360.798 0.0354118H167.197C148.109 0.0354118 132.635 15.2626 132.635 34.031V69.3368H132.515H132.174C131.64 69.333 131.126 69.5411 130.744 69.9155C130.363 70.2898 130.146 70.7999 130.14 71.334V88.3318C130.146 88.8659 130.363 89.3761 130.744 89.7504C131.126 90.1248 131.64 90.3329 132.174 90.3291H132.55H132.671V107.688H132.047C131.782 107.686 131.52 107.736 131.275 107.836C131.03 107.935 130.807 108.082 130.619 108.267C130.431 108.453 130.281 108.673 130.178 108.917C130.075 109.16 130.021 109.421 130.02 109.685V142.186C130.023 142.721 130.239 143.231 130.619 143.607C130.999 143.983 131.512 144.193 132.047 144.191H132.671V156.939H132.132C131.867 156.936 131.604 156.986 131.358 157.085C131.112 157.184 130.889 157.33 130.7 157.516C130.511 157.701 130.36 157.922 130.257 158.166C130.154 158.41 130.099 158.672 130.098 158.936V191.756C130.099 192.021 130.154 192.283 130.257 192.527C130.36 192.77 130.511 192.991 130.7 193.177C130.889 193.363 131.112 193.509 131.358 193.608C131.604 193.707 131.867 193.756 132.132 193.754H132.671V491.484C132.671 510.267 148.144 525.48 167.233 525.48H360.791C379.88 525.48 395.353 510.252 395.353 491.484V182.903H396.941C397.476 182.907 397.99 182.699 398.371 182.325C398.753 181.95 398.97 181.44 398.976 180.906V121.201C398.97 120.667 398.753 120.157 398.371 119.783C397.99 119.408 397.476 119.2 396.941 119.204Z" fill="url(#paint0_linear)"/>
<g opacity="0.9">
<path opacity="0.9" d="M393.865 121.293H389.477C388.581 121.293 387.854 122.02 387.854 122.915V182.577C387.854 183.473 388.581 184.199 389.477 184.199H393.865C394.761 184.199 395.488 183.473 395.488 182.577V122.915C395.488 122.02 394.761 121.293 393.865 121.293Z" fill="#E5E7EB"/>
<path opacity="0.9" d="M136.668 72.014H135.626C134.73 72.014 134.003 72.7401 134.003 73.6358V91.1011C134.003 91.9968 134.73 92.7229 135.626 92.7229H136.668C137.565 92.7229 138.292 91.9968 138.292 91.1011V73.6358C138.292 72.7401 137.565 72.014 136.668 72.014Z" fill="#E5E7EB"/>
<path opacity="0.9" d="M137.058 109.926H135.47C134.574 109.926 133.847 110.652 133.847 111.548V144.347C133.847 145.242 134.574 145.968 135.47 145.968H137.058C137.955 145.968 138.681 145.242 138.681 144.347V111.548C138.681 110.652 137.955 109.926 137.058 109.926Z" fill="#E5E7EB"/>
<path opacity="0.9" d="M136.902 158.582H135.548C134.652 158.582 133.925 159.308 133.925 160.204V193.314C133.925 194.21 134.652 194.936 135.548 194.936H136.902C137.799 194.936 138.525 194.21 138.525 193.314V160.204C138.525 159.308 137.799 158.582 136.902 158.582Z" fill="#E5E7EB"/>
<path opacity="0.9" d="M364.335 3.57662H164.064C148.801 3.57662 136.427 15.94 136.427 31.1909V494.898C136.427 510.149 148.801 522.512 164.064 522.512H364.335C379.599 522.512 391.972 510.149 391.972 494.898V31.1909C391.972 15.94 379.599 3.57662 364.335 3.57662Z" fill="white"/>
<path opacity="0.9" d="M272.5 19.0729H242.297C240.782 19.0729 239.554 20.3001 239.554 21.8138V23.5703C239.554 25.084 240.782 26.3112 242.297 26.3112H272.5C274.015 26.3112 275.243 25.084 275.243 23.5703V21.8138C275.243 20.3001 274.015 19.0729 272.5 19.0729Z" fill="#E5E7EB"/>
<path opacity="0.9" d="M284.742 26.7998C287.012 26.7998 288.853 24.9607 288.853 22.692C288.853 20.4234 287.012 18.5842 284.742 18.5842C282.471 18.5842 280.63 20.4234 280.63 22.692C280.63 24.9607 282.471 26.7998 284.742 26.7998Z" fill="#E5E7EB"/>
</g>
<path d="M355.9 17.0969H326.647V20.6381C326.645 25.0661 324.884 29.3121 321.749 32.4425C318.615 35.5729 314.365 37.3314 309.933 37.3314H216.666C212.235 37.3314 207.984 35.5729 204.85 32.4425C201.716 29.3121 199.954 25.0661 199.952 20.6381V17.0969H172.507C167.124 17.0969 161.963 19.2333 158.157 23.0359C154.351 26.8386 152.213 31.9961 152.213 37.3739V488.722C152.213 494.1 154.351 499.257 158.157 503.06C161.963 506.862 167.124 508.999 172.507 508.999H355.9C361.283 508.999 366.444 506.862 370.25 503.06C374.056 499.257 376.194 494.1 376.194 488.722V37.3739C376.194 31.9961 374.056 26.8386 370.25 23.0359C366.444 19.2333 361.283 17.0969 355.9 17.0969Z" fill="#ECECF3"/>
<path d="M61.8518 540.544C84.2401 540.544 102.389 537.478 102.389 533.695C102.389 529.913 84.2401 526.846 61.8518 526.846C39.4635 526.846 21.3142 529.913 21.3142 533.695C21.3142 537.478 39.4635 540.544 61.8518 540.544Z" fill="black"/>
<path d="M78.6156 522.491C80.3522 520.876 81.9825 518.95 82.4787 516.662C82.9748 514.374 81.9967 511.57 79.778 510.727C77.2972 509.778 74.6462 511.492 72.6402 513.227C70.6342 514.962 68.3235 516.945 65.6937 516.577C67.0522 515.349 68.0677 513.79 68.6406 512.051C69.2135 510.313 69.324 508.456 68.9614 506.662C68.848 505.923 68.5342 505.23 68.0541 504.657C66.679 503.184 64.1839 503.814 62.5324 504.976C57.2942 508.659 55.8269 515.777 55.7986 522.186C55.2669 519.87 55.7135 517.462 55.6993 515.104C55.6851 512.745 55.0401 510.104 53.0412 508.829C51.7918 508.161 50.3886 507.834 48.9726 507.88C46.6193 507.795 44.0108 508.028 42.3876 509.749C40.3816 511.874 40.9062 515.479 42.6428 517.838C44.3794 520.196 47.0304 521.669 49.4688 523.298C51.3188 524.538 53.1972 525.982 54.3384 527.944C54.4885 528.207 54.6097 528.484 54.6999 528.773H69.4647C72.7834 527.099 75.8614 524.986 78.6156 522.491Z" fill="black"/>
<g opacity="0.4">
<path opacity="0.4" d="M439.485 499.926C452.263 499.926 462.621 498.176 462.621 496.017C462.621 493.858 452.263 492.107 439.485 492.107C426.707 492.107 416.349 493.858 416.349 496.017C416.349 498.176 426.707 499.926 439.485 499.926Z" fill="black"/>
<path opacity="0.4" d="M449.047 489.621C450.102 488.762 450.873 487.604 451.258 486.3C451.542 484.975 450.975 483.389 449.713 482.907C448.296 482.369 446.786 483.346 445.638 484.324C444.489 485.301 443.178 486.448 441.675 486.236C442.452 485.535 443.033 484.644 443.36 483.65C443.687 482.656 443.749 481.595 443.539 480.57C443.475 480.149 443.296 479.755 443.022 479.43C442.235 478.587 440.81 478.948 439.875 479.607C436.884 481.731 436.047 485.775 436.026 489.43C435.728 488.113 435.983 486.739 435.976 485.386C435.969 484.033 435.593 482.553 434.452 481.802C433.74 481.424 432.941 481.238 432.134 481.264C430.788 481.214 429.299 481.349 428.371 482.326C427.229 483.552 427.527 485.598 428.519 486.944C429.512 488.29 431.022 489.133 432.418 490.06C433.53 490.726 434.479 491.631 435.197 492.709C435.282 492.859 435.351 493.019 435.402 493.184H443.837C445.727 492.237 447.479 491.039 449.047 489.621Z" fill="black"/>
</g>
<g opacity="0.4">
<path opacity="0.4" d="M85.1296 455.994C97.9073 455.994 108.266 454.244 108.266 452.084C108.266 449.925 97.9073 448.175 85.1296 448.175C72.352 448.175 61.9937 449.925 61.9937 452.084C61.9937 454.244 72.352 455.994 85.1296 455.994Z" fill="black"/>
<path opacity="0.4" d="M94.6988 445.689C95.756 444.83 96.5252 443.668 96.9032 442.36C97.1867 441.043 96.6268 439.457 95.358 438.975C93.9403 438.437 92.4305 439.414 91.2893 440.391C90.1481 441.369 88.8226 442.516 87.327 442.304C88.1013 441.601 88.68 440.709 89.0067 439.716C89.3334 438.723 89.397 437.663 89.1912 436.638C89.1242 436.216 88.9456 435.82 88.6738 435.49C87.887 434.655 86.4622 435.016 85.5195 435.675C82.5283 437.799 81.6919 441.836 81.6777 445.491C81.3729 444.173 81.6281 442.799 81.621 441.447C81.6139 440.094 81.2453 438.614 80.1041 437.905C79.3911 437.521 78.5888 437.333 77.7792 437.36C76.4395 437.311 74.9439 437.445 74.0224 438.43C72.8812 439.655 73.1789 441.702 74.1713 443.047C75.1636 444.393 76.6734 445.229 78.0627 446.164C79.1775 446.825 80.1276 447.731 80.8413 448.812C80.9262 448.964 80.9974 449.123 81.0539 449.287H89.4818C91.3748 448.328 93.1297 447.117 94.6988 445.689Z" fill="black"/>
</g>
<path d="M205.608 54.57H169.395V90.754H205.608V54.57Z" fill="#D6D8E0"/>
<path d="M308.204 57.1551H232.331V64.0462H308.204V57.1551Z" fill="#D6D8E0"/>
<path d="M357.346 69.2164H232.331V76.1076H357.346V69.2164Z" fill="#D6D8E0"/>
<path d="M357.346 81.2778H232.331V88.1689H357.346V81.2778Z" fill="#D6D8E0"/>
<path d="M205.885 120.904H169.671V157.088H205.885V120.904Z" fill="#D6D8E0"/>
<path d="M308.48 123.489H232.607V130.38H308.48V123.489Z" fill="#D6D8E0"/>
<path d="M357.623 135.55H232.607V142.441H357.623V135.55Z" fill="#D6D8E0"/>
<path d="M357.623 147.605H232.607V154.496H357.623V147.605Z" fill="#D6D8E0"/>
<path d="M206.161 187.238H169.948V223.422H206.161V187.238Z" fill="#D6D8E0"/>
<path d="M308.764 189.816H232.891V196.707H308.764V189.816Z" fill="#D6D8E0"/>
<path d="M357.906 201.877H232.891V208.768H357.906V201.877Z" fill="#D6D8E0"/>
<path d="M357.906 213.938H232.891V220.83H357.906V213.938Z" fill="#D6D8E0"/>
<path d="M206.438 253.564H170.224V289.749H206.438V253.564Z" fill="#D6D8E0"/>
<path d="M309.04 256.15H233.167V263.041H309.04V256.15Z" fill="#D6D8E0"/>
<path d="M358.183 268.211H233.167V275.102H358.183V268.211Z" fill="#D6D8E0"/>
<path d="M358.183 280.272H233.167V287.163H358.183V280.272Z" fill="#D6D8E0"/>
<path d="M206.721 319.898H170.508V356.082H206.721V319.898Z" fill="#D6D8E0"/>
<path d="M309.316 322.483H233.444V329.375H309.316V322.483Z" fill="#D6D8E0"/>
<path d="M358.459 334.545H233.444V341.436H358.459V334.545Z" fill="#D6D8E0"/>
<path d="M358.459 346.606H233.444V353.497H358.459V346.606Z" fill="#D6D8E0"/>
<path d="M206.998 386.232H170.784V422.416H206.998V386.232Z" fill="#D6D8E0"/>
<path d="M309.593 388.817H233.72V395.708H309.593V388.817Z" fill="#D6D8E0"/>
<path d="M358.736 400.879H233.72V407.77H358.736V400.879Z" fill="#D6D8E0"/>
<path d="M358.736 412.94H233.72V419.831H358.736V412.94Z" fill="#D6D8E0"/>
<path d="M207.274 452.566H171.06V488.75H207.274V452.566Z" fill="#D6D8E0"/>
<path d="M309.869 455.151H233.997V462.042H309.869V455.151Z" fill="#D6D8E0"/>
<path d="M359.012 467.213H233.997V474.104H359.012V467.213Z" fill="#D6D8E0"/>
<path d="M359.012 479.274H233.997V486.165H359.012V479.274Z" fill="#D6D8E0"/>
<path d="M418.532 163.675H109.875V240.342H418.532V163.675Z" fill="url(#paint1_linear)"/>
<path d="M417.667 165.403H111.597V238.628H417.667V165.403Z" fill="white"/>
<path d="M206.87 183.923H170.656V220.107H206.87V183.923Z" fill="black"/>
<g opacity="0.5">
<path opacity="0.5" d="M309.472 186.508H233.6V193.399H309.472V186.508Z" fill="black"/>
<path opacity="0.5" d="M358.615 198.57H233.6V205.461H358.615V198.57Z" fill="black"/>
<path opacity="0.5" d="M358.615 210.631H233.6V217.522H358.615V210.631Z" fill="black"/>
</g>
<path d="M219.863 230.596C217.935 228.691 214.731 228.061 212.413 229.463C210.613 230.547 209.62 232.565 208.713 234.47C207.387 237.303 205.445 239.952 204.85 243.012C203.213 251.447 196.493 257.998 193.799 266.15C192.835 269.061 192.382 272.184 190.858 274.84C190.138 276.003 189.332 277.111 188.448 278.155C184.96 282.55 181.876 287.25 179.233 292.199C177.702 292.496 176.341 293.793 175.037 294.805C173.366 296.103 171.43 297.02 169.366 297.49C168.535 297.587 167.739 297.879 167.041 298.339C166.063 299.154 165.928 300.62 165.135 301.604C164.558 302.25 163.826 302.737 163.008 303.021C163.008 302.773 162.973 302.525 162.966 302.27C162.93 300.96 162.909 299.643 162.909 298.325C165.195 295.636 166.446 292.221 166.438 288.692C166.43 285.164 165.164 281.754 162.866 279.075C162.922 277.024 163.195 274.985 163.681 272.992C163.93 272.021 163.894 270.831 163.107 270.201C162.717 269.897 162.214 269.783 161.796 269.493C161.207 268.995 160.724 268.383 160.378 267.694C159.329 266.207 157.783 265.143 156.019 264.693C154.254 264.243 152.387 264.435 150.752 265.236C148.194 266.582 146.641 269.273 144.373 271.101C143.211 272.035 141.871 272.737 140.708 273.679C138.382 275.707 136.728 278.394 135.966 281.384C135.221 284.362 134.789 287.41 134.676 290.478C134.555 291.398 134.591 292.332 134.783 293.24C135.012 294 135.364 294.718 135.825 295.365C137.985 298.877 141.021 301.769 144.635 303.758C144.65 303.939 144.65 304.121 144.635 304.303C144.635 304.586 144.543 304.862 144.479 305.146L144.068 305.032C142.551 304.692 140.914 304.735 139.553 303.977C137.228 302.674 136.526 299.494 134.301 298.035C134.112 297.912 133.912 297.806 133.705 297.716C133.548 293.688 132.779 289.707 131.423 285.91C130.771 284.097 129.97 282.248 130.069 280.315C130.154 278.523 131.012 276.873 131.777 275.251C134.45 269.656 136.321 263.721 138.157 257.807C139.333 254.091 140.515 250.373 141.701 246.652C142.855 245.796 143.9 244.802 144.813 243.692C146.704 241.491 147.952 238.813 148.42 235.951C148.645 234.522 148.585 233.063 148.243 231.658C147.901 230.253 147.285 228.929 146.429 227.763C146.051 227.206 145.558 226.736 144.983 226.384C144.409 226.032 143.766 225.807 143.097 225.724C142.509 225.736 141.93 225.868 141.395 226.112C140.861 226.355 140.381 226.705 139.985 227.14C138.81 228.479 137.905 230.033 137.32 231.715C136.158 234.456 134.981 237.303 135.095 240.278C135.187 242.743 136.108 245.498 134.669 247.502C129.956 254.067 126.397 261.617 122.662 268.799C121.718 270.514 120.907 272.299 120.238 274.139C119.335 277.123 118.906 280.23 118.969 283.346C118.933 289.189 119.734 295.004 120.528 300.797C120.89 303.41 121.351 306.187 122.591 308.446C121.778 311.246 121.351 314.143 121.322 317.058C121.289 317.731 121.395 318.404 121.634 319.034C122.051 319.768 122.58 320.432 123.201 321.003C124.031 321.946 124.651 323.056 125.018 324.258C125.385 325.46 125.49 326.726 125.327 327.972C125.119 330.319 125.333 332.684 125.958 334.956C127.375 341.245 128.793 347.527 129.927 353.866C130.197 355.045 130.287 356.257 130.197 357.463C129.977 359.177 129.027 360.806 129.233 362.527C129.436 363.324 129.587 364.133 129.686 364.95C129.64 365.572 129.497 366.184 129.261 366.763C127.645 371.458 123.3 382.224 123.349 387.195L124.483 386.926C123.342 393.378 120.67 399.547 119.267 405.978C118.293 410.663 117.851 415.443 117.948 420.228C118.042 422.376 118.004 424.529 117.835 426.673C117.615 428.578 117.126 430.441 116.857 432.339C116.552 434.883 116.438 437.447 116.516 440.009C116.443 444.035 116.68 448.06 117.225 452.049C118.31 458.848 116.41 465.605 115.893 472.468C115.63 477.269 115.086 482.051 114.262 486.788C113.872 488.786 113.383 490.769 113.114 492.787C112.32 498.779 113.475 504.955 112.228 510.868C111.64 513.638 110.591 516.747 112.136 519.112C112.625 519.856 113.327 520.437 113.858 521.152C114.149 521.491 114.348 521.899 114.435 522.337C114.522 522.775 114.494 523.228 114.354 523.652C114.05 524.304 113.341 524.729 113.164 525.423C112.88 526.514 114.021 527.406 115.042 527.873L115.333 527.987C115.266 528.36 115.281 528.743 115.376 529.109C115.472 529.476 115.645 529.818 115.885 530.111C116.492 530.683 117.245 531.075 118.062 531.245L131.444 535.296C134.428 536.202 137.675 537.095 140.659 536.358C140.726 536.782 140.91 537.18 141.19 537.505C141.797 538.077 142.55 538.469 143.367 538.639L156.65 542.661C160.066 543.695 163.816 544.715 167.098 543.313C168.038 542.926 168.863 542.304 169.494 541.507C170.015 540.741 170.361 539.871 170.508 538.956C170.655 538.042 170.599 537.107 170.344 536.216C170.178 535.311 169.726 534.482 169.054 533.851C168.145 533.219 167.071 532.867 165.964 532.838C165.019 532.81 164.093 532.568 163.256 532.13C163.003 531.966 162.792 531.745 162.639 531.485C163.405 530.73 164.147 529.946 164.865 529.134C164.284 528.936 164.078 528.1 164.022 527.491C163.178 518.468 166.581 509.65 167.871 500.684C168.522 496.185 168.636 491.625 168.211 487.1C168.055 485.393 167.821 483.693 167.75 481.979C167.417 473.055 171.684 464.472 171.535 455.541C171.464 451.362 173.662 447.24 174.732 443.196C175.668 439.612 175.696 435.859 175.717 432.147L175.887 402.925C175.887 398.973 175.887 394.929 174.626 391.197C173.989 389.121 173.815 386.931 174.115 384.78C177.723 383.187 181.14 380.828 184.996 381.239C186.024 378.512 184.804 369.426 183.84 366.671C180.051 355.831 179.315 344.159 181.714 332.93C182.586 328.9 181.388 324.615 182.359 320.6C182.537 319.657 182.896 318.758 183.415 317.951C183.678 317.549 184.039 317.22 184.465 316.996C184.89 316.771 185.366 316.659 185.846 316.669C185.846 314.211 185.797 311.711 185.634 309.218C187.199 307.941 188.535 306.405 189.582 304.678C191.708 301.137 192.92 297.15 194.388 293.297C196.989 286.498 200.54 280.116 203.524 273.466C206.509 266.816 206.799 259.542 209.195 252.658C210.514 248.866 213.243 245.727 216.815 243.89C218.232 243.182 219.742 242.672 220.77 241.51C221.548 240.542 222.026 239.368 222.145 238.132C222.366 236.785 222.276 235.406 221.88 234.099C221.484 232.793 220.794 231.595 219.863 230.596ZM136.93 523.192C137.221 522.873 137.505 522.554 137.774 522.207C136.881 522.066 135.789 521.414 135.768 520.508C135.832 519.599 136.028 518.704 136.349 517.852C136.769 516.314 136.836 514.702 136.548 513.135C136.349 512.037 135.981 511.01 135.754 509.891C135.537 508.678 135.395 507.453 135.329 506.222C134.946 501.807 134.081 497.446 132.748 493.219C131.465 489.118 133.223 484.968 133.677 480.697C133.897 478.672 133.797 476.583 134.506 474.677C134.924 473.544 135.612 472.553 136.03 471.405C137.001 468.778 136.427 465.853 135.832 463.112C140.028 455.512 141.417 446.447 142.998 437.891C143.886 433.089 144.775 428.29 145.663 423.493C146.053 421.368 146.485 419.13 147.79 417.416C149.17 423.773 149.713 430.282 149.406 436.779C149.243 438.666 149.266 440.564 149.477 442.445C149.803 444.506 150.66 446.454 151.157 448.48C152.262 452.949 151.617 457.644 151.865 462.241C151.957 464.096 152.198 465.952 152.276 467.807C152.624 476.016 149.874 483.998 147.159 491.753C145.493 496.505 145.124 501.909 144.323 506.888C143.572 511.655 142.828 516.428 142.445 521.237C142.332 522.703 142.24 524.212 142.062 525.699C141.606 525.598 141.145 525.525 140.68 525.479C139.736 525.451 138.81 525.209 137.972 524.771C137.471 524.364 137.108 523.812 136.93 523.192Z" fill="url(#paint2_linear)"/>
<path d="M165.978 532.909C167.084 532.94 168.157 533.289 169.069 533.915C169.739 534.541 170.191 535.365 170.359 536.266C170.613 537.152 170.669 538.082 170.522 538.992C170.375 539.902 170.029 540.768 169.508 541.528C168.877 542.319 168.051 542.934 167.112 543.313C163.83 544.73 160.081 543.703 156.664 542.676L143.282 538.646C142.466 538.479 141.713 538.089 141.106 537.52C140.738 537.025 140.534 536.427 140.524 535.811C140.514 535.195 140.698 534.591 141.049 534.085C141.769 533.086 142.75 532.304 143.884 531.825C148.052 529.8 152.744 529.332 157.352 529.247C159.053 529.212 160.726 528.844 161.881 530.154C162.491 530.862 162.384 531.613 163.299 532.215C164.127 532.647 165.044 532.884 165.978 532.909Z" fill="#3F3D56"/>
<path d="M140.694 525.55C141.8 525.575 142.874 525.922 143.785 526.549C144.451 527.178 144.902 528.001 145.075 528.9C145.33 529.786 145.386 530.717 145.239 531.627C145.092 532.536 144.745 533.402 144.224 534.162C143.593 534.956 142.768 535.573 141.828 535.954C138.547 537.371 134.797 536.337 131.38 535.31L117.998 531.28C117.181 531.116 116.427 530.726 115.822 530.154C115.454 529.659 115.251 529.062 115.24 528.446C115.23 527.829 115.414 527.225 115.765 526.719C116.483 525.719 117.464 524.937 118.6 524.46C122.768 522.434 127.453 521.967 132.032 521.882C133.727 521.882 135.406 521.478 136.562 522.788C137.171 523.496 137.065 524.254 137.979 524.849C138.82 525.285 139.748 525.525 140.694 525.55Z" fill="#3F3D56"/>
<path d="M152.319 380.439C144.435 379.647 136.504 379.425 128.588 379.773C128.065 379.766 127.545 379.848 127.05 380.014C125.306 380.722 125.036 383.003 124.866 384.872C124.2 392.429 120.861 399.476 119.196 406.892C118.221 411.548 117.779 416.3 117.877 421.056C117.97 423.181 117.932 425.31 117.764 427.431C117.544 429.329 117.055 431.177 116.786 433.097C116.481 435.625 116.367 438.172 116.446 440.717C116.372 444.712 116.609 448.707 117.154 452.665C118.239 459.422 116.339 466.122 115.822 472.949C115.559 477.72 115.015 482.471 114.191 487.178C113.802 489.161 113.313 491.13 113.043 493.134C112.249 499.09 113.405 505.231 112.157 511.102C111.569 513.85 110.52 516.938 112.065 519.289C112.554 520.033 113.256 520.607 113.787 521.315C114.078 521.651 114.276 522.057 114.363 522.493C114.45 522.928 114.423 523.379 114.284 523.801C113.979 524.445 113.27 524.87 113.093 525.557C112.809 526.641 113.95 527.533 114.971 527.994C122.662 531.457 132.578 529.014 137.767 522.363C136.874 522.222 135.782 521.577 135.761 520.678C135.825 519.773 136.021 518.883 136.342 518.036C136.762 516.508 136.83 514.905 136.541 513.347C136.342 512.264 135.974 511.223 135.747 510.125C135.531 508.921 135.388 507.705 135.321 506.484C134.939 502.097 134.074 497.764 132.741 493.566C131.458 489.494 133.216 485.372 133.67 481.122C133.89 479.118 133.79 477.036 134.499 475.145C134.917 474.019 135.605 473.02 136.023 471.894C136.994 469.281 136.42 466.384 135.825 463.657C140.021 456.1 141.41 447.098 142.991 438.6C143.879 433.831 144.768 429.062 145.656 424.293C146.046 422.168 146.478 419.966 147.783 418.259C149.163 424.575 149.707 431.044 149.399 437.502C149.238 439.362 149.262 441.234 149.47 443.09C149.796 445.137 150.653 447.07 151.15 449.089C152.255 453.522 151.61 458.19 151.858 462.758C151.95 464.599 152.192 466.441 152.269 468.289C152.617 476.441 149.867 484.373 147.152 492.072C145.486 496.796 145.117 502.164 144.316 507.108C143.565 511.846 142.821 516.584 142.438 521.365C142.091 525.756 141.942 530.508 139.206 533.957C141.701 535.579 144.288 537.229 147.208 537.789C150.621 538.321 154.113 537.647 157.082 535.884C160.029 534.118 162.664 531.878 164.879 529.254C164.298 529.056 164.093 528.22 164.036 527.618C163.192 518.659 166.595 509.912 167.885 500.989C168.536 496.518 168.651 491.987 168.225 487.489C168.069 485.797 167.835 484.111 167.764 482.411C167.431 473.544 171.698 465.01 171.549 456.143C171.479 451.992 173.676 447.892 174.746 443.876C175.682 440.335 175.71 436.588 175.732 432.905L175.902 403.867C175.902 399.937 175.902 395.921 174.64 392.21C173.081 387.755 174.86 382.627 175.129 377.917C167.764 380.242 160.014 381.098 152.319 380.439Z" fill="#3F3D56"/>
<path d="M177.596 297.015C180.575 290.927 184.214 285.184 188.448 279.89C189.33 278.854 190.136 277.756 190.858 276.604C192.382 273.969 192.836 270.86 193.8 267.97C196.493 259.868 203.213 253.359 204.85 244.981C205.445 241.942 207.388 239.315 208.713 236.482C209.62 234.584 210.613 232.586 212.413 231.524C214.731 230.108 217.935 230.766 219.863 232.657C220.791 233.645 221.478 234.832 221.873 236.128C222.268 237.424 222.358 238.793 222.138 240.129C222.023 241.36 221.544 242.528 220.763 243.486C219.735 244.641 218.197 245.165 216.808 245.859C213.24 247.67 210.51 250.789 209.188 254.563C206.821 261.405 206.523 268.643 203.517 275.237C200.512 281.83 196.982 288.169 194.381 294.919C192.913 298.75 191.73 302.709 189.575 306.251C187.42 309.792 184.032 312.759 179.963 313.29C179.969 310.731 179.567 308.188 178.773 305.755C177.915 302.943 176.306 299.621 177.596 297.015Z" fill="#A0616A"/>
<path d="M133.705 302.299C133.886 297.291 133.107 292.296 131.409 287.581C130.757 285.775 129.956 283.941 130.055 282.022C130.14 280.244 130.998 278.601 131.763 276.993C134.435 271.433 136.307 265.534 138.143 259.655L141.687 248.578C142.839 247.728 143.884 246.741 144.798 245.639C146.686 243.456 147.935 240.794 148.406 237.948C148.631 236.527 148.57 235.076 148.228 233.679C147.886 232.282 147.27 230.967 146.414 229.81C146.036 229.255 145.542 228.788 144.968 228.44C144.393 228.092 143.75 227.871 143.083 227.792C142.495 227.802 141.915 227.933 141.38 228.177C140.844 228.42 140.365 228.771 139.971 229.208C138.797 230.537 137.892 232.081 137.306 233.755C136.144 236.475 134.967 239.308 135.08 242.254C135.173 244.704 136.094 247.438 134.655 249.428C129.941 255.951 126.383 263.452 122.648 270.584C121.704 272.287 120.893 274.06 120.223 275.888C119.319 278.857 118.891 281.95 118.955 285.053C118.919 290.86 119.72 296.633 120.514 302.391C121.01 305.988 121.677 309.912 124.406 312.306C127.248 308.701 130.097 305.146 133.705 302.299Z" fill="#A0616A"/>
<path d="M151.745 305.068C159.868 305.068 166.453 298.488 166.453 290.372C166.453 282.255 159.868 275.676 151.745 275.676C143.622 275.676 137.037 282.255 137.037 290.372C137.037 298.488 143.622 305.068 151.745 305.068Z" fill="#A0616A"/>
<path d="M144.6 305.847C144.246 308.51 142.821 310.882 141.432 313.177C140.588 314.594 139.525 316.102 137.887 316.258C142.145 318.496 146.619 320.294 151.242 321.626C152.816 322.154 154.465 322.419 156.125 322.413C157.53 322.308 158.905 321.955 160.187 321.372C162.991 320.143 165.479 318.293 167.461 315.962C169.443 313.63 170.868 310.879 171.627 307.915C169.799 307.964 167.97 307.824 166.17 307.497C165.163 307.313 164.078 307.015 163.49 306.187C163.082 305.465 162.89 304.642 162.937 303.814C162.866 301.364 162.866 298.913 162.937 296.463C159.324 296.23 155.698 296.675 152.248 297.773C150.831 298.233 149.413 298.793 147.96 299.154C147.067 299.374 144.607 299.154 143.948 299.671C142.948 300.457 144.862 304.041 144.6 305.847Z" fill="#A0616A"/>
<path d="M151.086 314.778C150.922 312.847 150.155 311.016 148.894 309.544C147.632 308.072 145.939 307.034 144.054 306.576C142.537 306.243 140.9 306.279 139.539 305.528C137.214 304.232 136.512 301.073 134.287 299.621C132.061 298.17 128.885 298.977 126.943 300.818C125.001 302.66 124.016 305.266 123.222 307.816C122.033 311.272 121.39 314.892 121.315 318.546C121.282 319.216 121.388 319.887 121.627 320.515C122.046 321.244 122.574 321.906 123.194 322.476C124.024 323.409 124.643 324.509 125.01 325.701C125.377 326.894 125.483 328.152 125.32 329.389C125.112 331.724 125.326 334.077 125.951 336.337C127.369 342.576 128.786 348.823 129.92 355.119C130.186 356.28 130.277 357.473 130.19 358.66C129.97 360.36 129.02 361.982 129.226 363.682C129.429 364.476 129.58 365.283 129.679 366.097C129.633 366.713 129.489 367.318 129.254 367.889C127.638 372.563 123.293 383.258 123.342 388.194C130.891 386.261 142.02 385.828 149.81 385.8C151.957 385.771 154.103 385.865 156.239 386.083C161.364 386.629 166.609 388.123 171.578 386.742C176.185 385.46 180.275 381.784 185.046 382.252C186.073 379.539 184.854 370.509 183.89 367.775C180.101 357.012 179.365 345.41 181.764 334.254C182.636 330.246 181.438 325.996 182.409 322.009C182.586 321.07 182.945 320.175 183.465 319.374C183.729 318.973 184.09 318.646 184.516 318.423C184.941 318.2 185.416 318.089 185.896 318.099C185.984 311.697 185.39 305.303 184.124 299.026C183.649 296.796 182.664 294.161 180.417 293.778C178.39 293.438 176.681 295.145 175.058 296.406C173.382 297.692 171.448 298.6 169.388 299.069C168.557 299.164 167.761 299.453 167.063 299.912C166.084 300.719 165.95 302.178 165.156 303.163C163.738 304.926 160.57 304.77 159.563 306.803C159.337 307.409 159.157 308.032 159.025 308.666C158.549 309.87 157.74 310.914 156.693 311.676C155.108 313.156 153.182 314.221 151.086 314.778Z" fill="black"/>
<path d="M163.696 274.748C163.944 273.778 163.908 272.623 163.122 271.972C162.732 271.667 162.229 271.554 161.81 271.263C161.221 270.768 160.739 270.159 160.393 269.472C159.332 267.992 157.781 266.935 156.015 266.491C154.248 266.046 152.381 266.241 150.746 267.042C148.187 268.381 146.634 271.058 144.366 272.871C143.204 273.806 141.864 274.5 140.702 275.428C138.378 277.441 136.724 280.114 135.96 283.091C135.216 286.053 134.786 289.084 134.677 292.135C134.555 293.051 134.591 293.98 134.783 294.883C135.014 295.632 135.366 296.337 135.825 296.973C138.157 300.514 141.247 303.736 145.11 305.556C148.974 307.377 153.673 307.681 157.487 305.776C157.869 305.615 158.198 305.35 158.436 305.011C158.655 304.494 158.705 303.922 158.578 303.375C158.377 301.212 158.808 299.037 159.819 297.114C160.527 295.698 161.584 294.48 162.158 293.006C162.679 291.364 162.904 289.642 162.824 287.921C162.881 283.481 162.576 279.04 163.696 274.748Z" fill="#2D293D"/>
<path d="M206.721 184.355H170.508V220.539H206.721V184.355Z" fill="black"/>
<path d="M193.509 215.178C192.984 216.189 192.114 216.978 191.056 217.402C190.431 217.63 189.773 217.755 189.107 217.77C188.388 217.823 187.665 217.734 186.981 217.508C186.069 217.149 185.286 216.525 184.734 215.716C184.188 214.907 183.75 214.031 183.429 213.11C183.214 212.65 183.124 212.142 183.167 211.637C183.444 211.603 183.712 211.515 183.956 211.377C184.199 211.24 184.413 211.056 184.585 210.836C184.687 210.615 184.743 210.375 184.749 210.132C184.755 209.888 184.711 209.646 184.62 209.42C184.578 209.278 184.535 209.144 184.486 209.016C184.379 208.704 184.011 208.117 184.266 207.855C184.521 207.593 185.116 207.6 185.35 207.493C186.044 207.079 186.784 206.749 187.555 206.509C188.254 206.416 188.964 206.462 189.646 206.644C189.739 206.659 189.828 206.692 189.908 206.743C189.998 206.817 190.064 206.915 190.099 207.026C190.298 207.508 190.411 208.039 190.567 208.535C190.703 209.054 190.972 209.53 191.347 209.916C191.671 210.19 192.037 210.41 192.431 210.567L193.381 210.999C193.548 211.065 193.7 211.164 193.828 211.29C193.949 211.461 194.023 211.661 194.041 211.87C194.216 213.001 194.03 214.159 193.509 215.178Z" fill="#A0616A"/>
<path opacity="0.1" d="M190.56 208.556C189.806 209.339 188.813 209.85 187.737 210.01C186.662 210.17 185.563 209.97 184.613 209.441C184.571 209.299 184.528 209.165 184.478 209.037C184.372 208.726 184.004 208.138 184.259 207.876C184.514 207.614 185.109 207.621 185.343 207.515C186.036 207.101 186.776 206.77 187.548 206.53C188.247 206.437 188.957 206.483 189.639 206.665C189.732 206.68 189.821 206.714 189.901 206.764C189.99 206.838 190.057 206.936 190.092 207.047C190.291 207.55 190.404 208.06 190.56 208.556Z" fill="black"/>
<path d="M187.016 209.852C189.733 209.852 191.935 207.651 191.935 204.937C191.935 202.222 189.733 200.021 187.016 200.021C184.299 200.021 182.097 202.222 182.097 204.937C182.097 207.651 184.299 209.852 187.016 209.852Z" fill="#A0616A"/>
<path d="M201.937 220.532H178.787C178.078 218.953 177.44 217.366 176.724 215.787C176.8 215.411 176.942 215.052 177.142 214.725C177.245 214.565 177.385 214.433 177.55 214.34C177.716 214.248 177.902 214.197 178.092 214.193C178.297 214.193 178.531 214.271 178.68 214.123C178.829 213.974 178.779 213.853 178.886 213.754C178.992 213.655 179.247 213.655 179.446 213.669C179.659 213.676 179.87 213.63 180.061 213.535C180.251 213.439 180.415 213.298 180.537 213.124C180.613 212.992 180.706 212.871 180.814 212.763C181 212.672 181.202 212.619 181.409 212.607C181.983 212.479 182.324 211.899 182.756 211.537C182.86 211.42 182.995 211.336 183.147 211.294C183.298 211.253 183.457 211.256 183.607 211.304C183.676 211.339 183.737 211.39 183.784 211.452C183.9 211.631 183.98 211.831 184.018 212.04C184.274 213.217 184.927 214.269 185.868 215.022C186.367 215.399 186.945 215.66 187.559 215.785C188.172 215.911 188.806 215.897 189.414 215.746C190.022 215.594 190.588 215.309 191.071 214.91C191.553 214.512 191.941 214.01 192.205 213.443C192.547 212.587 192.744 211.679 192.786 210.758C192.786 210.709 192.786 210.68 192.786 210.638C193.074 210.567 193.375 210.559 193.666 210.617C193.958 210.674 194.233 210.795 194.473 210.971C194.943 211.331 195.446 211.646 195.975 211.913C196.606 212.161 197.393 212.161 197.826 212.621C198.01 212.805 198.137 213.06 198.371 213.173C198.517 213.23 198.669 213.266 198.825 213.28C199.221 213.387 199.587 213.582 199.895 213.853C200.204 214.123 200.446 214.46 200.604 214.838C201.117 215.974 201.452 217.183 201.596 218.422L201.937 220.532Z" fill="#F86D70"/>
<path d="M183.621 196.962C183.278 197.239 182.988 197.575 182.763 197.953C182.341 198.649 181.751 199.229 181.048 199.639C180.753 199.742 180.484 199.909 180.261 200.128C180.151 200.294 180.081 200.483 180.055 200.68C179.912 201.367 179.838 202.067 179.836 202.769C179.809 203.123 179.868 203.477 180.006 203.803C180.148 204.101 180.417 204.356 180.467 204.682C180.477 204.939 180.448 205.197 180.381 205.447C180.348 205.577 180.356 205.715 180.402 205.841C180.449 205.968 180.533 206.077 180.644 206.155C180.772 206.2 180.905 206.231 181.041 206.247C181.75 206.403 181.991 207.238 182.097 207.925C182.338 207.925 182.444 207.635 182.501 207.408L183.21 204.115C183.295 203.761 183.422 203.343 183.784 203.223C184.032 203.17 184.288 203.17 184.535 203.223C185.513 203.308 186.336 202.55 187.293 202.337C187.601 202.28 187.915 202.261 188.228 202.281C188.98 202.281 189.858 202.628 190.022 203.329C190.022 203.442 190.064 203.584 190.17 203.641C190.279 203.672 190.395 203.672 190.504 203.641C190.978 203.591 191.262 204.129 191.404 204.568L191.9 206.176C191.978 206.417 192.105 206.707 192.368 206.736C192.488 206.735 192.603 206.691 192.693 206.611C192.783 206.532 192.841 206.422 192.857 206.304C192.867 206.063 192.834 205.823 192.758 205.595C192.524 204.547 192.885 203.471 193.105 202.415C193.325 201.36 193.36 200.149 192.623 199.334C192.354 199.044 191.999 198.825 191.751 198.513C191.503 198.201 191.39 197.868 191.149 197.578C190.186 196.734 188.985 196.209 187.711 196.077C186.289 195.951 184.863 196.26 183.621 196.962Z" fill="#3F3D56"/>
<g opacity="0.1">
<path opacity="0.1" d="M192.396 205.971C192.134 205.971 192.006 205.652 191.928 205.411L191.432 203.803C191.29 203.364 191.007 202.826 190.532 202.869C190.423 202.9 190.307 202.9 190.199 202.869C190.092 202.812 190.078 202.677 190.05 202.557C189.887 201.849 189.008 201.544 188.256 201.509C187.943 201.487 187.628 201.509 187.321 201.572C186.364 201.778 185.542 202.536 184.563 202.451C184.315 202.405 184.06 202.405 183.812 202.451C183.451 202.578 183.323 202.989 183.238 203.35C182.99 204.448 182.749 205.546 182.529 206.636C182.472 206.863 182.366 207.139 182.125 207.153C182.019 206.445 181.778 205.631 181.069 205.475C180.933 205.463 180.799 205.432 180.672 205.383C180.578 205.332 180.505 205.249 180.466 205.149C180.466 205.248 180.424 205.355 180.41 205.454C180.376 205.584 180.384 205.722 180.431 205.849C180.477 205.975 180.562 206.084 180.672 206.162C180.8 206.208 180.933 206.238 181.069 206.254C181.778 206.41 182.019 207.246 182.125 207.933C182.366 207.933 182.472 207.642 182.529 207.415C182.777 206.318 183.018 205.22 183.238 204.122C183.323 203.768 183.451 203.35 183.812 203.23C184.06 203.177 184.316 203.177 184.563 203.23C185.542 203.315 186.364 202.557 187.321 202.344C187.629 202.287 187.943 202.268 188.256 202.288C189.008 202.288 189.887 202.635 190.05 203.336C190.05 203.449 190.092 203.591 190.199 203.648C190.307 203.679 190.423 203.679 190.532 203.648C191.007 203.598 191.29 204.136 191.432 204.575L191.928 206.183C192.006 206.424 192.134 206.714 192.396 206.743C192.516 206.742 192.632 206.698 192.722 206.618C192.811 206.539 192.87 206.43 192.885 206.311C192.9 206.119 192.876 205.926 192.814 205.744C192.773 205.818 192.712 205.879 192.638 205.919C192.564 205.959 192.48 205.977 192.396 205.971Z" fill="black"/>
<path opacity="0.1" d="M180.466 203.931C180.417 203.605 180.147 203.35 180.006 203.053C179.913 202.852 179.857 202.636 179.843 202.415C179.843 202.536 179.843 202.649 179.843 202.769C179.816 203.123 179.875 203.477 180.013 203.803C180.126 204.044 180.325 204.257 180.424 204.512C180.474 204.322 180.488 204.126 180.466 203.931Z" fill="black"/>
<path opacity="0.1" d="M193.133 201.657C192.851 202.575 192.715 203.531 192.729 204.49C192.821 203.793 192.956 203.103 193.133 202.422C193.251 201.902 193.292 201.368 193.254 200.836C193.231 201.112 193.191 201.387 193.133 201.657Z" fill="black"/>
</g>
<path d="M180.637 220.532H175.115C175.358 219.047 175.794 217.599 176.412 216.226C176.46 216.085 176.54 215.956 176.646 215.851C176.668 215.826 176.695 215.804 176.724 215.787C176.887 215.659 177.114 215.61 177.291 215.489C177.468 215.369 177.489 215.242 177.652 215.192C178.266 215.178 178.877 215.278 179.453 215.489C179.616 215.508 179.776 215.548 179.928 215.61C180.287 215.809 180.556 216.139 180.679 216.531C181.147 217.798 180.792 219.172 180.637 220.532Z" fill="#F86D70"/>
</g>
<defs>
<linearGradient id="paint0_linear" x1="264.483" y1="525.494" x2="264.483" y2="-1.31973e-05" gradientUnits="userSpaceOnUse">
<stop stop-color="#808080" stop-opacity="0.25"/>
<stop offset="0.54" stop-color="#808080" stop-opacity="0.12"/>
<stop offset="1" stop-color="#808080" stop-opacity="0.1"/>
</linearGradient>
<linearGradient id="paint1_linear" x1="115159" y1="26181.4" x2="115159" y2="17881.4" gradientUnits="userSpaceOnUse">
<stop stop-color="#808080" stop-opacity="0.25"/>
<stop offset="0.54" stop-color="#808080" stop-opacity="0.12"/>
<stop offset="1" stop-color="#808080" stop-opacity="0.1"/>
</linearGradient>
<linearGradient id="paint2_linear" x1="46368.1" y1="194163" x2="63734.6" y2="194163" gradientUnits="userSpaceOnUse">
<stop stop-color="#808080" stop-opacity="0.25"/>
<stop offset="0.54" stop-color="#808080" stop-opacity="0.12"/>
<stop offset="1" stop-color="#808080" stop-opacity="0.1"/>
</linearGradient>
<clipPath id="clip0">
<rect width="482" height="544" fill="white"/>
</clipPath>
</defs>
</svg>
